<?xml version="1.0" encoding="UTF-8" standalone="no"?>
<!DOCTYPE svg PUBLIC "-//W3C//DTD SVG 1.1//EN" "http://www.w3.org/Graphics/SVG/1.1/DTD/svg11.dtd">
<svg width="100%" height="100%" viewBox="0 0 960 240" version="1.1" xmlns="http://www.w3.org/2000/svg" xmlns:xlink="http://www.w3.org/1999/xlink" xml:space="preserve" xmlns:serif="http://www.serif.com/" style="fill-rule:evenodd;clip-rule:evenodd;stroke-linejoin:round;stroke-miterlimit:2;">
    <rect x="-4" y="-4" width="967" height="247" style="fill:rgb(15,23,42);"/>
    <g transform="matrix(0.249688,0,-0,0.249688,123,122.912)">
        <g transform="matrix(1,0,0,1,-256,-256)">
            <path d="M456,76L456,436C456,447.0383 447.0383,456 436,456L76,456C64.9617,456 56,447.0383 56,436L56,76C56,64.9617 64.9617,56 76,56L436,56C447.0383,56 456,64.9617 456,76Z" style="fill:rgb(248,250,252);"/>
            <g transform="matrix(0.73948,0,0,0.7206,240.704,293.72)">
                <g transform="matrix(0.974469,0,0,1,-4.8613,0)">
                    <g transform="matrix(177.629774,0,0,177.629774,-92.707707,0)">
                        <path d="M0.405,-0L0.52,-0C0.516,-0.063 0.513,-0.129 0.513,-0.18L0.513,-0.74L0.393,-0.74L0.393,-0.46L0.388,-0.46C0.357,-0.518 0.308,-0.55 0.244,-0.55C0.12,-0.55 0.027,-0.43 0.027,-0.27C0.027,-0.109 0.119,0.01 0.243,0.01C0.311,0.01 0.362,-0.025 0.392,-0.089L0.397,-0.089C0.399,-0.06 0.401,-0.032 0.405,-0ZM0.271,-0.1C0.2,-0.1 0.147,-0.173 0.147,-0.27C0.147,-0.367 0.2,-0.44 0.271,-0.44C0.342,-0.44 0.395,-0.367 0.395,-0.27C0.395,-0.173 0.342,-0.1 0.271,-0.1Z" style="fill:rgb(15,23,42);fill-rule:nonzero;"/>
                    </g>
                    <g transform="matrix(177.629774,0,0,177.629774,4.988668,0)">
                        <path d="M0.381,-0.15C0.37,-0.119 0.337,-0.1 0.294,-0.1C0.211,-0.1 0.159,-0.169 0.159,-0.274C0.159,-0.375 0.208,-0.44 0.287,-0.44C0.33,-0.44 0.363,-0.421 0.376,-0.39L0.496,-0.39C0.481,-0.485 0.395,-0.55 0.287,-0.55C0.143,-0.55 0.039,-0.434 0.039,-0.273C0.039,-0.111 0.145,0.01 0.289,0.01C0.395,0.01 0.483,-0.055 0.503,-0.15L0.381,-0.15Z" style="fill:rgb(15,23,42);fill-rule:nonzero;"/>
                    </g>
                    <g transform="matrix(177.629774,0,0,177.629774,102.685044,0)">
                        <path d="M0.045,-0L0.16,-0L0.16,-0.37C0.16,-0.417 0.182,-0.45 0.214,-0.45C0.241,-0.45 0.257,-0.427 0.257,-0.39L0.257,-0L0.372,-0L0.372,-0.374C0.372,-0.419 0.394,-0.45 0.425,-0.45C0.452,-0.45 0.469,-0.427 0.469,-0.39L0.469,-0L0.584,-0L0.584,-0.41C0.584,-0.495 0.536,-0.55 0.46,-0.55C0.411,-0.55 0.373,-0.527 0.351,-0.482L0.347,-0.482C0.329,-0.526 0.295,-0.55 0.252,-0.55C0.207,-0.55 0.169,-0.523 0.154,-0.478L0.15,-0.478L0.15,-0.54L0.045,-0.54L0.045,-0Z" style="fill:rgb(15,23,42);fill-rule:nonzero;"/>
                    </g>
                    <g transform="matrix(1,0,0,1,-190.4041,0)">
                        <text x="0px" y="0px" style="font-family:'CommitMono-Bold', 'CommitMono';font-weight:700;font-size:177.6298px;fill:rgb(15,23,42);">.</text>
                    </g>
                </g>
            </g>
            <g transform="matrix(1.08721,0,0,1.075418,-23.413052,-19.307015)">
                <path d="M120,190.2898L105.2834,190.2898L105.2834,104.1221L191.1285,104.1221L191.1285,119L120,119L120,190.2898ZM322.8715,119L322.8715,104.1221L408.7166,104.1221L408.7166,190.2898L394,190.2898L394,119L322.8715,119ZM394,321.7102L408.7166,321.7102L408.7166,407.8779L322.8715,407.8779L322.8715,393L394,393L394,321.7102ZM191.1285,393L191.1285,407.8779L105.2834,407.8779L105.2834,321.7102L120,321.7102L120,393L191.1285,393Z" style="fill:rgb(100,116,139);"/>
            </g>
        </g>
    </g>
    <g transform="matrix(1,0,0,1,28,6.894752)">
        <g transform="matrix(0.73948,0,0,0.7206,403.017406,137.889154)">
            <g transform="matrix(0.974469,0,0,1,-7.443866,0)">
                <g transform="matrix(155.426052,0,0,155.426052,-291.556252,-0)">
                    <path d="M0.405,-0L0.52,-0C0.516,-0.063 0.513,-0.129 0.513,-0.18L0.513,-0.74L0.393,-0.74L0.393,-0.46L0.388,-0.46C0.357,-0.518 0.308,-0.55 0.244,-0.55C0.12,-0.55 0.027,-0.43 0.027,-0.27C0.027,-0.109 0.119,0.01 0.243,0.01C0.311,0.01 0.362,-0.025 0.392,-0.089L0.397,-0.089C0.399,-0.06 0.401,-0.032 0.405,-0ZM0.271,-0.1C0.2,-0.1 0.147,-0.173 0.147,-0.27C0.147,-0.367 0.2,-0.44 0.271,-0.44C0.342,-0.44 0.395,-0.367 0.395,-0.27C0.395,-0.173 0.342,-0.1 0.271,-0.1Z" style="fill:rgb(248,250,252);fill-rule:nonzero;"/>
                </g>
                <g transform="matrix(155.426052,0,0,155.426052,-291.556252,-0)">
                </g>
                <g transform="matrix(155.426052,0,0,155.426052,-206.071923,-0)">
                    <path d="M0.381,-0.15C0.37,-0.119 0.337,-0.1 0.294,-0.1C0.211,-0.1 0.159,-0.169 0.159,-0.274C0.159,-0.375 0.208,-0.44 0.287,-0.44C0.33,-0.44 0.363,-0.421 0.376,-0.39L0.496,-0.39C0.481,-0.485 0.395,-0.55 0.287,-0.55C0.143,-0.55 0.039,-0.434 0.039,-0.273C0.039,-0.111 0.145,0.01 0.289,0.01C0.395,0.01 0.483,-0.055 0.503,-0.15L0.381,-0.15Z" style="fill:rgb(248,250,252);fill-rule:nonzero;"/>
                </g>
                <g transform="matrix(155.426052,0,0,155.426052,-206.071923,-0)">
                </g>
                <g transform="matrix(155.426052,0,0,155.426052,-35.103266,-0)">
                    <path d="M0.264,-0L0.424,-0L0.584,-0.54L0.466,-0.54L0.347,-0.125L0.343,-0.125L0.224,-0.54L0.104,-0.54L0.264,-0Z" style="fill:rgb(248,250,252);fill-rule:nonzero;"/>
                </g>
                <g transform="matrix(155.426052,0,0,155.426052,-35.103266,-0)">
                </g>
                <g transform="matrix(155.426052,0,0,155.426052,135.865391,-0)">
                    <path d="M0.146,-0.237L0.491,-0.237L0.491,-0.282C0.491,-0.441 0.398,-0.55 0.263,-0.55C0.125,-0.55 0.026,-0.435 0.026,-0.273C0.026,-0.108 0.129,0.01 0.274,0.01C0.38,0.01 0.463,-0.054 0.481,-0.15L0.367,-0.15C0.355,-0.116 0.319,-0.095 0.274,-0.095C0.202,-0.095 0.156,-0.148 0.146,-0.237ZM0.263,-0.448C0.322,-0.448 0.365,-0.402 0.371,-0.331L0.149,-0.331C0.163,-0.404 0.205,-0.448 0.263,-0.448Z" style="fill:rgb(248,250,252);fill-rule:nonzero;"/>
                </g>
                <g transform="matrix(155.426052,0,0,155.426052,135.865391,-0)">
                </g>
                <g transform="matrix(155.426052,0,0,155.426052,221.34972,-0)">
                    <path d="M0.09,-0L0.24,-0L0.316,-0.355L0.32,-0.355L0.396,-0L0.546,-0L0.608,-0.54L0.498,-0.54L0.459,-0.125L0.455,-0.125L0.378,-0.48L0.258,-0.48L0.181,-0.125L0.177,-0.125L0.138,-0.54L0.028,-0.54L0.09,-0Z" style="fill:rgb(248,250,252);fill-rule:nonzero;"/>
                </g>
                <g transform="matrix(155.426052,0,0,155.426052,221.34972,-0)">
                </g>
                <g transform="matrix(155.426052,0,0,155.426052,306.834049,-0)">
                </g>
                <text x="-120.5876px" y="-0px" style="font-family:'CommitMono-Bold', 'CommitMono';font-weight:700;font-size:155.4261px;fill:rgb(248,250,252);"><tspan x="-120.5876px 50.3811px " y="-0px -0px ">mi</tspan></text>
            </g>
        </g>
        <g transform="matrix(0.73948,0,0,0.7206,397.057406,178.049342)">
            <g transform="matrix(0.974469,0,0,1,-7.200801,0)">
                <g transform="matrix(33.305583,0,0,33.305583,-202.10265,-0)">
                    <path d="M0.436,-0.178C0.422,-0.113 0.367,-0.07 0.298,-0.07C0.187,-0.07 0.116,-0.179 0.116,-0.349C0.116,-0.519 0.187,-0.63 0.297,-0.63C0.362,-0.63 0.415,-0.591 0.429,-0.532L0.513,-0.532C0.496,-0.636 0.406,-0.71 0.294,-0.71C0.137,-0.71 0.028,-0.564 0.028,-0.35C0.028,-0.137 0.137,0.01 0.296,0.01C0.411,0.01 0.504,-0.068 0.519,-0.178L0.436,-0.178Z" style="fill:rgb(180,189,201);fill-rule:nonzero;"/>
                </g>
                <g transform="matrix(33.305583,0,0,33.305583,-202.10265,-0)">
                </g>
                <g transform="matrix(33.305583,0,0,33.305583,-182.1193,-0)">
                    <path d="M0.282,0.01C0.437,0.01 0.546,-0.138 0.546,-0.35C0.546,-0.562 0.437,-0.71 0.282,-0.71C0.127,-0.71 0.018,-0.562 0.018,-0.35C0.018,-0.138 0.127,0.01 0.282,0.01ZM0.282,-0.07C0.175,-0.07 0.105,-0.18 0.105,-0.35C0.105,-0.52 0.175,-0.63 0.282,-0.63C0.389,-0.63 0.459,-0.52 0.459,-0.35C0.459,-0.18 0.389,-0.07 0.282,-0.07Z" style="fill:rgb(180,189,201);fill-rule:nonzero;"/>
                </g>
                <g transform="matrix(33.305583,0,0,33.305583,-182.1193,-0)">
                </g>
                <g transform="matrix(33.305583,0,0,33.305583,-162.135951,-0)">
                    <path d="M0.154,-0.598L0.158,-0.598L0.291,-0.152L0.369,-0.152L0.502,-0.598L0.506,-0.598L0.506,-0L0.588,-0L0.588,-0.7L0.463,-0.7L0.332,-0.257L0.328,-0.257L0.197,-0.7L0.072,-0.7L0.072,-0L0.154,-0L0.154,-0.598Z" style="fill:rgb(180,189,201);fill-rule:nonzero;"/>
                </g>
                <g transform="matrix(33.305583,0,0,33.305583,-162.135951,-0)">
                </g>
                <g transform="matrix(33.305583,0,0,33.305583,-82.202552,-0)">
                    <path d="M0.117,-0.254L0.483,-0.254L0.483,-0.286C0.483,-0.442 0.393,-0.55 0.263,-0.55C0.129,-0.55 0.034,-0.435 0.034,-0.273C0.034,-0.108 0.134,0.01 0.274,0.01C0.373,0.01 0.453,-0.049 0.473,-0.138L0.393,-0.138C0.377,-0.093 0.332,-0.064 0.276,-0.064C0.184,-0.064 0.123,-0.139 0.117,-0.254ZM0.263,-0.477C0.339,-0.477 0.396,-0.415 0.4,-0.32L0.12,-0.32C0.134,-0.416 0.188,-0.477 0.263,-0.477Z" style="fill:rgb(180,189,201);fill-rule:nonzero;"/>
                </g>
                <g transform="matrix(33.305583,0,0,33.305583,-82.202552,-0)">
                </g>
                <g transform="matrix(33.305583,0,0,33.305583,-42.235853,-0)">
                    <path d="M0.201,-0.254L0.567,-0.254L0.567,-0.286C0.567,-0.442 0.477,-0.55 0.347,-0.55C0.213,-0.55 0.118,-0.435 0.118,-0.273C0.118,-0.108 0.218,0.01 0.358,0.01C0.457,0.01 0.537,-0.049 0.557,-0.138L0.477,-0.138C0.461,-0.093 0.416,-0.064 0.36,-0.064C0.268,-0.064 0.207,-0.139 0.201,-0.254ZM0.347,-0.477C0.423,-0.477 0.48,-0.415 0.484,-0.32L0.204,-0.32C0.218,-0.416 0.272,-0.477 0.347,-0.477Z" style="fill:rgb(180,189,201);fill-rule:nonzero;"/>
                </g>
                <g transform="matrix(33.305583,0,0,33.305583,-42.235853,-0)">
                </g>
                <g transform="matrix(33.305583,0,0,33.305583,-22.252504,-0)">
                    <path d="M0.229,-0L0.229,-0.307C0.229,-0.405 0.282,-0.473 0.357,-0.473C0.404,-0.473 0.44,-0.446 0.449,-0.402L0.535,-0.402C0.525,-0.49 0.464,-0.547 0.379,-0.547C0.312,-0.547 0.258,-0.512 0.228,-0.453L0.224,-0.453L0.224,-0.54L0.145,-0.54L0.145,-0L0.229,-0Z" style="fill:rgb(180,189,201);fill-rule:nonzero;"/>
                </g>
                <g transform="matrix(33.305583,0,0,33.305583,-22.252504,-0)">
                </g>
                <g transform="matrix(33.305583,0,0,33.305583,17.714195,-0)">
                    <path d="M0.221,-0L0.305,-0L0.305,-0.465L0.492,-0.465L0.492,-0.54L0.305,-0.54L0.305,-0.559C0.305,-0.64 0.34,-0.679 0.412,-0.679C0.442,-0.679 0.472,-0.672 0.502,-0.657L0.502,-0.727C0.474,-0.742 0.438,-0.75 0.398,-0.75C0.282,-0.75 0.221,-0.684 0.221,-0.559L0.221,-0.54L0.069,-0.54L0.069,-0.465L0.221,-0.465L0.221,-0Z" style="fill:rgb(180,189,201);fill-rule:nonzero;"/>
                </g>
                <g transform="matrix(33.305583,0,0,33.305583,17.714195,-0)">
                </g>
                <g transform="matrix(33.305583,0,0,33.305583,57.680895,-0)">
                    <path d="M0.229,-0L0.229,-0.307C0.229,-0.405 0.282,-0.473 0.357,-0.473C0.404,-0.473 0.44,-0.446 0.449,-0.402L0.535,-0.402C0.525,-0.49 0.464,-0.547 0.379,-0.547C0.312,-0.547 0.258,-0.512 0.228,-0.453L0.224,-0.453L0.224,-0.54L0.145,-0.54L0.145,-0L0.229,-0Z" style="fill:rgb(180,189,201);fill-rule:nonzero;"/>
                </g>
                <g transform="matrix(33.305583,0,0,33.305583,57.680895,-0)">
                </g>
                <g transform="matrix(33.305583,0,0,33.305583,96.981482,-0)">
                    <path d="M0.428,-0L0.508,-0C0.504,-0.063 0.501,-0.129 0.501,-0.18L0.501,-0.74L0.417,-0.74L0.417,-0.45L0.412,-0.45C0.379,-0.514 0.324,-0.55 0.255,-0.55C0.129,-0.55 0.036,-0.431 0.036,-0.27C0.036,-0.108 0.129,0.01 0.255,0.01C0.327,0.01 0.382,-0.029 0.415,-0.097L0.42,-0.097C0.422,-0.065 0.424,-0.033 0.428,-0ZM0.272,-0.066C0.184,-0.066 0.121,-0.152 0.121,-0.27C0.121,-0.388 0.185,-0.474 0.273,-0.474C0.359,-0.474 0.419,-0.391 0.419,-0.27C0.419,-0.15 0.359,-0.066 0.272,-0.066Z" style="fill:rgb(180,189,201);fill-rule:nonzero;"/>
                </g>
                <g transform="matrix(33.305583,0,0,33.305583,96.981482,-0)">
                </g>
                <g transform="matrix(33.305583,0,0,33.305583,156.931531,-0)">
                    <path d="M0.171,-0.254L0.537,-0.254L0.537,-0.286C0.537,-0.442 0.447,-0.55 0.317,-0.55C0.183,-0.55 0.088,-0.435 0.088,-0.273C0.088,-0.108 0.188,0.01 0.328,0.01C0.427,0.01 0.507,-0.049 0.527,-0.138L0.447,-0.138C0.431,-0.093 0.386,-0.064 0.33,-0.064C0.238,-0.064 0.177,-0.139 0.171,-0.254ZM0.317,-0.477C0.393,-0.477 0.45,-0.415 0.454,-0.32L0.174,-0.32C0.188,-0.416 0.242,-0.477 0.317,-0.477Z" style="fill:rgb(180,189,201);fill-rule:nonzero;"/>
                </g>
                <g transform="matrix(33.305583,0,0,33.305583,156.931531,-0)">
                </g>
                <g transform="matrix(33.305583,0,0,33.305583,196.89823,-0)">
                    <path d="M0.288,0.01C0.424,0.01 0.524,-0.107 0.524,-0.27C0.524,-0.433 0.424,-0.55 0.288,-0.55C0.152,-0.55 0.052,-0.433 0.052,-0.27C0.052,-0.107 0.152,0.01 0.288,0.01ZM0.288,-0.066C0.199,-0.066 0.137,-0.15 0.137,-0.27C0.137,-0.39 0.199,-0.474 0.288,-0.474C0.377,-0.474 0.439,-0.39 0.439,-0.27C0.439,-0.15 0.377,-0.066 0.288,-0.066Z" style="fill:rgb(180,189,201);fill-rule:nonzero;"/>
                </g>
                <g transform="matrix(33.305583,0,0,33.305583,196.89823,-0)">
                </g>
                <g transform="matrix(33.305583,0,0,33.305583,236.864929,-0)">
                    <path d="M0.171,-0.254L0.537,-0.254L0.537,-0.286C0.537,-0.442 0.447,-0.55 0.317,-0.55C0.183,-0.55 0.088,-0.435 0.088,-0.273C0.088,-0.108 0.188,0.01 0.328,0.01C0.427,0.01 0.507,-0.049 0.527,-0.138L0.447,-0.138C0.431,-0.093 0.386,-0.064 0.33,-0.064C0.238,-0.064 0.177,-0.139 0.171,-0.254ZM0.317,-0.477C0.393,-0.477 0.45,-0.415 0.454,-0.32L0.174,-0.32C0.188,-0.416 0.242,-0.477 0.317,-0.477Z" style="fill:rgb(180,189,201);fill-rule:nonzero;"/>
                </g>
                <g transform="matrix(33.305583,0,0,33.305583,236.864929,-0)">
                </g>
                <g transform="matrix(33.305583,0,0,33.305583,296.814978,-0)">
                </g>
                <text x="-282.036px" y="-0px" style="font-family:'CommitMono-Regular', 'CommitMono';font-size:33.3056px;fill:rgb(180,189,201);">a DI<tspan x="-142.1526px " y="-0px "> </tspan>vi<tspan x="-62.2192px -2.2692px 37.6975px 77.6642px 116.9648px 136.9482px 176.9149px 216.8816px 256.8483px " y="-0px -0px -0px -0px -0px -0px -0px -0px -0px ">w o evlpr</tspan>s</text>
            </g>
        </g>
    </g>
</svg>
