<?xml version="1.0" encoding="UTF-8" standalone="no"?>
<!DOCTYPE svg PUBLIC "-//W3C//DTD SVG 1.1//EN" "http://www.w3.org/Graphics/SVG/1.1/DTD/svg11.dtd">
<svg width="100%" height="100%" viewBox="0 0 512 512" version="1.1" xmlns="http://www.w3.org/2000/svg" xmlns:xlink="http://www.w3.org/1999/xlink" xml:space="preserve" xmlns:serif="http://www.serif.com/" style="fill-rule:evenodd;clip-rule:evenodd;stroke-linejoin:round;stroke-miterlimit:2;">
    <path d="M456,76L456,436C456,447.0383 447.0383,456 436,456L76,456C64.9617,456 56,447.0383 56,436L56,76C56,64.9617 64.9617,56 76,56L436,56C447.0383,56 456,64.9617 456,76Z" style="fill:rgb(248,250,252);"/>
    <g transform="matrix(0.73948,0,0,0.7206,240.704,293.72)">
        <g transform="matrix(0.974469,0,0,1,-4.8613,0)">
            <g transform="matrix(177.629774,0,0,177.629774,-92.707707,-0)">
                <path d="M0.405,-0L0.52,-0C0.516,-0.063 0.513,-0.129 0.513,-0.18L0.513,-0.74L0.393,-0.74L0.393,-0.46L0.388,-0.46C0.357,-0.518 0.308,-0.55 0.244,-0.55C0.12,-0.55 0.027,-0.43 0.027,-0.27C0.027,-0.109 0.119,0.01 0.243,0.01C0.311,0.01 0.362,-0.025 0.392,-0.089L0.397,-0.089C0.399,-0.06 0.401,-0.032 0.405,-0ZM0.271,-0.1C0.2,-0.1 0.147,-0.173 0.147,-0.27C0.147,-0.367 0.2,-0.44 0.271,-0.44C0.342,-0.44 0.395,-0.367 0.395,-0.27C0.395,-0.173 0.342,-0.1 0.271,-0.1Z" style="fill:rgb(15,23,42);fill-rule:nonzero;"/>
            </g>
            <g transform="matrix(177.629774,0,0,177.629774,-92.707707,-0)">
            </g>
            <g transform="matrix(177.629774,0,0,177.629774,4.988668,-0)">
                <path d="M0.381,-0.15C0.37,-0.119 0.337,-0.1 0.294,-0.1C0.211,-0.1 0.159,-0.169 0.159,-0.274C0.159,-0.375 0.208,-0.44 0.287,-0.44C0.33,-0.44 0.363,-0.421 0.376,-0.39L0.496,-0.39C0.481,-0.485 0.395,-0.55 0.287,-0.55C0.143,-0.55 0.039,-0.434 0.039,-0.273C0.039,-0.111 0.145,0.01 0.289,0.01C0.395,0.01 0.483,-0.055 0.503,-0.15L0.381,-0.15Z" style="fill:rgb(15,23,42);fill-rule:nonzero;"/>
            </g>
            <g transform="matrix(177.629774,0,0,177.629774,4.988668,-0)">
            </g>
            <g transform="matrix(177.629774,0,0,177.629774,102.685044,-0)">
                <path d="M0.045,-0L0.16,-0L0.16,-0.37C0.16,-0.417 0.182,-0.45 0.214,-0.45C0.241,-0.45 0.257,-0.427 0.257,-0.39L0.257,-0L0.372,-0L0.372,-0.374C0.372,-0.419 0.394,-0.45 0.425,-0.45C0.452,-0.45 0.469,-0.427 0.469,-0.39L0.469,-0L0.584,-0L0.584,-0.41C0.584,-0.495 0.536,-0.55 0.46,-0.55C0.411,-0.55 0.373,-0.527 0.351,-0.482L0.347,-0.482C0.329,-0.526 0.295,-0.55 0.252,-0.55C0.207,-0.55 0.169,-0.523 0.154,-0.478L0.15,-0.478L0.15,-0.54L0.045,-0.54L0.045,-0Z" style="fill:rgb(15,23,42);fill-rule:nonzero;"/>
            </g>
            <g transform="matrix(177.629774,0,0,177.629774,102.685044,-0)">
            </g>
            <g transform="matrix(177.629774,0,0,177.629774,200.381419,-0)">
            </g>
            <text x="-190.4041px" y="-0px" style="font-family:'CommitMono-Bold', 'CommitMono';font-weight:700;font-size:177.6298px;fill:rgb(15,23,42);">.</text>
        </g>
    </g>
    <g transform="matrix(1.08721,0,0,1.075418,-23.413052,-19.307015)">
        <path d="M120,190.2898L105.2834,190.2898L105.2834,104.1221L191.1285,104.1221L191.1285,119L120,119L120,190.2898ZM322.8715,119L322.8715,104.1221L408.7166,104.1221L408.7166,190.2898L394,190.2898L394,119L322.8715,119ZM394,321.7102L408.7166,321.7102L408.7166,407.8779L322.8715,407.8779L322.8715,393L394,393L394,321.7102ZM191.1285,393L191.1285,407.8779L105.2834,407.8779L105.2834,321.7102L120,321.7102L120,393L191.1285,393Z" style="fill:rgb(100,116,139);"/>
    </g>
</svg>
